PathFileType	4	(X/Y/Z)	StaticT.trc																																																																									
DataRate	CameraRate	NumFrames	NumMarkers	Units	OrigDataRate	OrigDataStartFrame	OrigNumFrames																																																																					
100	100	11	25	mm	100	120	481																																																																					
Frame#	Time	AA			AI			Ant_Sh			CV7			GH			LAH			Lat_Sh			LCAJ			LPH			Post_Sh			RAH			RCAJ			RHLE			RHME			RPH			RUA			SJN			SXS			TS			TV8			centelbow			centpxt8			centijc7			centLPHRPH			ScapulaThoracicContactPt		
		X1	Y1	Z1	X2	Y2	Z2	X3	Y3	Z3	X4	Y4	Z4	X5	Y5	Z5	X6	Y6	Z6	X7	Y7	Z7	X8	Y8	Z8	X9	Y9	Z9	X10	Y10	Z10	X11	Y11	Z11	X12	Y12	Z12	X13	Y13	Z13	X14	Y14	Z14	X15	Y15	Z15	X16	Y16	Z16	X17	Y17	Z17	X18	Y18	Z18	X19	Y19	Z19	X20	Y20	Z20	X21	Y21	Z21	X22	Y22	Z22	X23	Y23	Z23	X24	Y24	Z24	X25	Y25	Z25
																																																																												
121	1.2	-751.749939	1558.099487	763.967041	-768.944458	1376.395264	721.730835	-640.8119507	1575.693848	778.7588501	-746.6307373	1597.902466	584.0563965	-693.1211548	1549.330444	776.6848755	-525.3942871	1778.258545	556.1383667	-712.3730469	1586.387695	791.1959839	-696.4053345	1595.582764	438.7166443	-725.6641235	1732.634521	518.4907837	-765.7206421	1512.740845	773.8064575	-542.6148682	1778.001465	653.3114014	-704.5797119	1589.616699	732.1061401	-721.0755005	1522.096313	1051.716797	-606.2889404	1475.647339	1057.458008	-738.4750366	1735.1604	634.3151245	-722.8552246	1459.677979	905.3812866	-581.9376831	1522.389404	591.6721191	-520.366272	1343.53418	592.2124634	-801.2894897	1506.364258	675.8775024	-754.7398682	1310.608765	584.5564575	-663.6822205	1498.871826	1054.587402	-637.5530701	1327.071472	588.3844604	-664.2842102	1560.145935	587.8642578	-732.0695801	1733.897461	576.4029541	-773.9946289	1480.286336	720.5251261
122	1.21	-751.7623291	1558.074707	763.9634399	-768.982666	1376.357422	721.7011108	-640.8388062	1575.716675	778.7735596	-746.6830444	1597.938477	584.0435791	-693.1682129	1549.350586	776.7032471	-525.3877563	1778.250366	556.1459961	-712.3959961	1586.376221	791.1717529	-696.4786987	1595.591187	438.7397766	-725.7490234	1732.626343	518.4881592	-765.8440552	1512.732788	773.828064	-542.6400146	1778.02417	653.3052368	-704.6347656	1589.577393	732.0874634	-721.0653076	1522.063232	1051.666992	-606.34198	1475.696045	1057.449341	-738.5092163	1735.169678	634.3348389	-722.9313965	1459.703125	905.3754272	-581.9453735	1522.393188	591.6859741	-520.3692017	1343.582397	592.2095337	-801.3312378	1506.378906	675.9035645	-754.7868652	1310.598999	584.5887451	-663.7036438	1498.879639	1054.558167	-637.5780334	1327.090698	588.3991394	-664.314209	1560.165833	587.8647766	-732.1291199	1733.89801	576.411499	-774.025411	1480.270345	720.5227051
123	1.22	-751.8022461	1558.074097	763.9924316	-769.0576172	1376.383301	721.6965942	-640.8988037	1575.750732	778.7526855	-746.6990356	1597.939209	584.0794067	-693.1976318	1549.373047	776.6914063	-525.4076538	1778.22644	556.0800781	-712.4480591	1586.406616	791.2050781	-696.555481	1595.584473	438.7236633	-725.8201294	1732.634277	518.4890137	-765.8441162	1512.732788	773.828064	-542.6603394	1778.004639	653.2376099	-704.6526489	1589.593994	732.0466309	-721.1824341	1522.129395	1051.678955	-606.3495483	1475.701416	1057.460449	-738.5449219	1735.158569	634.3027344	-722.9260254	1459.728882	905.3701172	-581.9968262	1522.433105	591.6866455	-520.4207153	1343.58606	592.2040405	-801.3320923	1506.357422	675.8989258	-754.8203125	1310.609619	584.5585938	-663.7659912	1498.915405	1054.569702	-637.6205139	1327.097839	588.3813171	-664.3479309	1560.186157	587.8830261	-732.1825256	1733.896423	576.395874	-774.0639852	1480.271606	720.5293172
124	1.23	-751.8779297	1558.051147	763.9937744	-769.0152588	1376.366577	721.6707764	-640.9197998	1575.716064	778.7138062	-746.7698364	1597.900024	584.0132446	-693.2114258	1549.342407	776.6708984	-525.4154663	1778.236084	556.0543213	-712.4716797	1586.407104	791.1727295	-696.5856934	1595.586304	438.6893921	-725.8319092	1732.646729	518.4848022	-765.8493042	1512.707153	773.8331909	-542.7158203	1778.033569	653.2111816	-704.6810303	1589.616821	732.0683594	-721.1821899	1522.150879	1051.682983	-606.4030151	1475.749878	1057.44458	-738.5800171	1735.192505	634.3254395	-722.9761963	1459.719116	905.4003296	-581.9916382	1522.437988	591.6589966	-520.4257813	1343.629761	592.2214355	-801.4107056	1506.355957	675.9001465	-754.8629761	1310.603027	584.5797119	-663.7926025	1498.950378	1054.563782	-637.6443787	1327.116394	588.4005737	-664.3807373	1560.169006	587.8361206	-732.2059631	1733.919617	576.4051208	-774.101298	1480.257894	720.5215658
125	1.24	-751.8887939	1558.095093	763.954834	-769.1009521	1376.377075	721.7174072	-640.9564819	1575.754639	778.7337036	-746.7947388	1597.928589	584.0880127	-693.2520752	1549.381104	776.6809692	-525.4541626	1778.211914	556.0842896	-712.5122681	1586.446045	791.142395	-696.5856934	1595.58667	438.6892395	-725.8635254	1732.650635	518.4458008	-765.9238892	1512.731201	773.8284912	-542.7057495	1777.987549	653.1916504	-704.6897583	1589.636353	732.072876	-721.2530518	1522.222534	1051.675049	-606.4580078	1475.746216	1057.446289	-738.5872803	1735.194458	634.3322144	-723.052002	1459.766113	905.3989258	-582.0418701	1522.440308	591.6439209	-520.4193726	1343.634033	592.1889648	-801.4415894	1506.386597	675.8748169	-754.9014893	1310.588257	584.5553589	-663.8555298	1498.984375	1054.560669	-637.6604309	1327.111145	588.3721619	-664.4183044	1560.184448	587.8659668	-732.2254028	1733.922546	576.3890076	-774.1437785	1480.286255	720.515686
126	1.25	-751.9128418	1558.055176	763.9359131	-769.1380615	1376.383179	721.6976929	-640.942688	1575.752808	778.6915283	-746.8398438	1597.93689	584.0571289	-693.2808838	1549.371704	776.6428833	-525.5315552	1778.19165	555.979126	-712.5413818	1586.457642	791.1369629	-696.5914917	1595.617188	438.6457214	-725.9337158	1732.664429	518.4342651	-765.9554443	1512.740234	773.7981567	-542.7305298	1777.981445	653.1558838	-704.7539673	1589.643188	732.0109253	-721.2476807	1522.248047	1051.6698	-606.475647	1475.793823	1057.472656	-738.6195679	1735.201294	634.3035889	-723.0523682	1459.744263	905.3944702	-582.0877686	1522.4375	591.6348877	-520.4625244	1343.641602	592.1635742	-801.4424438	1506.365234	675.8701782	-754.9436646	1310.603516	584.5819092	-663.8616638	1499.020935	1054.571228	-637.7030945	1327.122559	588.3727417	-664.4638062	1560.187195	587.8460083	-732.2766418	1733.932861	576.368927	-774.1644491	1480.267863	720.5012614
127	1.26	-752.0211182	1558.138916	763.9243164	-769.1004639	1376.398926	721.7224121	-640.9743652	1575.799316	778.6433105	-746.9313354	1597.93396	584.0390625	-693.3544922	1549.395142	776.6260376	-525.5186768	1778.224121	556.036438	-712.6013794	1586.46814	791.1370239	-696.6365356	1595.62915	438.6338806	-725.9276733	1732.645752	518.3895264	-765.9978027	1512.776611	773.8282471	-542.758606	1777.974976	653.1375732	-704.755127	1589.617554	731.961853	-721.3182373	1522.341309	1051.665894	-606.5206299	1475.798462	1057.447266	-738.649231	1735.212891	634.267395	-723.1228027	1459.816895	905.3877563	-582.1856689	1522.478149	591.6273193	-520.5186157	1343.677246	592.1820068	-801.4476318	1506.339722	675.8753052	-754.9432373	1310.604248	584.5819092	-663.9194336	1499.069885	1054.55658	-637.7309265	1327.140747	588.381958	-664.5585022	1560.206055	587.8331909	-732.2884521	1733.929321	576.3284607	-774.189738	1480.292521	720.5073446
128	1.27	-752.0162354	1558.156738	763.9215088	-769.1808472	1376.398926	721.7235718	-641.062439	1575.838257	778.670105	-746.9730225	1597.940308	584.0236206	-693.3783569	1549.461304	776.6259155	-525.5790405	1778.197876	555.989563	-712.6256714	1586.514648	791.0969849	-696.6864624	1595.603882	438.6584167	-725.9667358	1732.661377	518.3591919	-766.0189209	1512.836792	773.7875977	-542.8101807	1777.976929	653.1135864	-704.8095093	1589.651245	731.994751	-721.4297485	1522.454468	1051.676758	-606.6248169	1475.846436	1057.437866	-738.7155762	1735.22876	634.2590332	-723.1119995	1459.868408	905.3771362	-582.2427368	1522.477905	591.6265259	-520.5196533	1343.725708	592.1825562	-801.5628052	1506.378296	675.8974609	-754.9435425	1310.603638	584.5819092	-664.0272827	1499.150452	1054.557312	-637.7315979	1327.164673	588.3822327	-664.6078796	1560.209106	587.8250732	-732.341156	1733.945068	576.3091125	-774.2532959	1480.31132	720.5141805
129	1.28	-752.0821533	1558.173096	763.8791504	-769.2181396	1376.440552	721.7437744	-641.0982056	1575.859253	778.640625	-747.0189209	1597.980835	583.9974365	-693.4558105	1549.460083	776.618042	-525.6178589	1778.17981	555.9885864	-712.7062988	1586.530029	791.1035156	-696.7697144	1595.625488	438.6696167	-726.0370483	1732.675171	518.3475952	-766.0618896	1512.851685	773.8132324	-542.8640137	1777.999268	653.1585083	-704.8736572	1589.658203	731.9328003	-721.4599609	1522.484497	1051.649902	-606.7357788	1475.944824	1057.436279	-738.7460327	1735.23291	634.1821899	-723.2639771	1459.94043	905.369812	-582.2891846	1522.522949	591.6169434	-520.5267334	1343.72937	592.1940308	-801.5945435	1506.387573	675.8674316	-754.9765625	1310.615112	584.5517578	-664.0978699	1499.214661	1054.543091	-637.7516479	1327.172241	588.3728943	-664.6540527	1560.251892	587.8071899	-732.3915405	1733.954041	576.2648926	-774.2982788	1480.33374	720.4967855
130	1.29	-752.1080933	1558.15625	763.8877563	-769.1854858	1376.452393	721.7791748	-641.1751709	1575.904053	778.6462402	-747.1015015	1597.938843	583.9590454	-693.5147095	1549.504883	776.6199341	-525.6254272	1778.201782	556.0342407	-712.7578735	1586.546021	791.0898438	-696.7774048	1595.633545	438.6722412	-726.02948	1732.672729	518.2935181	-766.1364136	1512.875732	773.8084717	-542.8959351	1778.009644	653.0960693	-704.937561	1589.687134	731.9207764	-721.5253906	1522.581665	1051.636719	-606.741333	1475.956909	1057.425781	-738.7835693	1735.224243	634.1985474	-723.3084106	1459.978271	905.399231	-582.2888794	1522.524048	591.6151733	-520.5346069	1343.767822	592.2314453	-801.6687622	1506.390137	675.8588257	-755.0519409	1310.641357	584.5481567	-664.1333618	1499.269287	1054.53125	-637.7932739	1327.20459	588.389801	-664.6951904	1560.231445	587.7871094	-732.4065247	1733.948486	576.2460327	-774.3207804	1480.332926	720.5085856
131	1.3	-752.1935425	1558.209473	763.8817139	-769.260437	1376.478271	721.7746582	-641.197876	1575.93042	778.6067505	-747.1633301	1597.973267	583.9888306	-693.5565796	1549.506592	776.5859375	-525.697876	1778.170898	556.0269775	-712.8215942	1586.57312	791.060791	-696.8467407	1595.653931	438.6711426	-726.1044312	1732.639771	518.2849121	-766.1732178	1512.859253	773.7833252	-542.9273071	1778.022827	653.1402588	-704.9471436	1589.682617	731.8758545	-721.6269531	1522.640259	1051.59375	-606.8084717	1476.047607	1057.476196	-738.8526611	1735.244141	634.1414185	-723.3535156	1459.972412	905.4196777	-582.3421021	1522.519653	591.6135864	-520.5761719	1343.769531	592.1967773	-801.6739502	1506.364624	675.8640137	-755.0579834	1310.593262	584.5485229	-664.2177124	1499.343933	1054.534973	-637.8170776	1327.181396	588.3726501	-664.7527161	1560.24646	587.8012085	-732.4785461	1733.941956	576.2131653	-774.3759766	1480.350789	720.5067952
